<?xml version="1.0" encoding="utf-8"?>
<!-- Generator: Adobe Illustrator 22.0.1, SVG Export Plug-In . SVG Version: 6.00 Build 0)  -->
<svg version="1.1" id="Ebene_1" xmlns="http://www.w3.org/2000/svg" xmlns:xlink="http://www.w3.org/1999/xlink" x="0px" y="0px"
	 viewBox="0 0 600 400" style="enable-background:new 0 0 600 400;" xml:space="preserve">
<style type="text/css">
	.st0{fill:#3F9AB2;}
	.st1{fill:#FFFFFF;}
</style>
<rect class="st0" width="600" height="400"/>
<g>
	<path class="st1" d="M66.3,349.1l-11.8-30.9h-0.2c0.2,2.5,0.3,5.4,0.3,8.7v22.2h-3.7v-34.9H57L68,342.9h0.2l11.2-28.8h6.1v34.9
		h-4.1v-22.5c0-2.6,0.1-5.4,0.3-8.4h-0.2l-11.9,30.9H66.3z"/>
	<path class="st1" d="M117,335.9c0,4.3-1.1,7.6-3.2,10c-2.1,2.4-5.1,3.6-8.9,3.6c-2.3,0-4.4-0.5-6.2-1.6c-1.8-1.1-3.2-2.7-4.2-4.7
		s-1.5-4.5-1.5-7.2c0-4.3,1.1-7.6,3.2-10c2.1-2.4,5.1-3.6,8.9-3.6c3.7,0,6.6,1.2,8.7,3.7C115.9,328.5,117,331.8,117,335.9z
		 M97,335.9c0,3.3,0.7,5.9,2,7.6c1.3,1.8,3.3,2.6,5.9,2.6c2.6,0,4.6-0.9,5.9-2.6c1.3-1.7,2-4.3,2-7.7c0-3.3-0.7-5.9-2-7.6
		s-3.3-2.6-6-2.6c-2.6,0-4.6,0.9-5.9,2.6C97.7,330,97,332.6,97,335.9z"/>
	<path class="st1" d="M141.7,345.5h-0.2c-1.8,2.7-4.6,4-8.2,4c-3.4,0-6.1-1.2-8-3.5c-1.9-2.3-2.9-5.7-2.9-10s1-7.7,2.9-10.1
		c1.9-2.4,4.6-3.6,8-3.6c3.5,0,6.3,1.3,8.2,3.9h0.3l-0.2-1.9l-0.1-1.8v-10.6h4v37.2h-3.2L141.7,345.5z M133.8,346.2
		c2.7,0,4.7-0.7,5.9-2.2c1.2-1.5,1.8-3.8,1.8-7.1V336c0-3.7-0.6-6.4-1.9-7.9s-3.2-2.4-5.9-2.4c-2.3,0-4.1,0.9-5.3,2.7
		c-1.2,1.8-1.9,4.4-1.9,7.7c0,3.3,0.6,5.9,1.8,7.6C129.6,345.4,131.4,346.2,133.8,346.2z"/>
	<path class="st1" d="M157.6,322.9v17c0,2.1,0.5,3.7,1.5,4.8c1,1.1,2.5,1.6,4.6,1.6c2.7,0,4.7-0.7,6-2.2s1.9-3.9,1.9-7.3v-13.8h4
		v26.2h-3.3l-0.6-3.5h-0.2c-0.8,1.3-1.9,2.3-3.4,3c-1.4,0.7-3.1,1-4.9,1c-3.2,0-5.6-0.8-7.2-2.3c-1.6-1.5-2.4-3.9-2.4-7.3v-17.1
		H157.6z"/>
	<path class="st1" d="M187.9,349.1h-4v-37.2h4V349.1z"/>
	<path class="st1" d="M214.2,349.1v-16.9c0-2.1-0.5-3.7-1.5-4.8c-1-1.1-2.5-1.6-4.6-1.6c-2.7,0-4.7,0.7-6,2.2
		c-1.3,1.5-1.9,3.9-1.9,7.3v13.7h-4v-26.2h3.2l0.6,3.6h0.2c0.8-1.3,2-2.3,3.4-3c1.5-0.7,3.1-1.1,4.9-1.1c3.2,0,5.5,0.8,7.1,2.3
		c1.6,1.5,2.4,4,2.4,7.3v17.1H214.2z"/>
	<path class="st1" d="M242.4,349.1l-0.8-3.7h-0.2c-1.3,1.6-2.6,2.8-3.9,3.3c-1.3,0.6-2.9,0.9-4.9,0.9c-2.6,0-4.6-0.7-6.1-2
		s-2.2-3.2-2.2-5.7c0-5.3,4.2-8.1,12.7-8.3l4.4-0.1v-1.6c0-2.1-0.4-3.6-1.3-4.5s-2.3-1.5-4.2-1.5c-2.2,0-4.6,0.7-7.4,2l-1.2-3
		c1.3-0.7,2.7-1.2,4.2-1.6c1.5-0.4,3.1-0.6,4.6-0.6c3.1,0,5.4,0.7,6.9,2.1c1.5,1.4,2.3,3.6,2.3,6.7v17.9H242.4z M233.4,346.3
		c2.5,0,4.4-0.7,5.8-2c1.4-1.4,2.1-3.2,2.1-5.7v-2.4l-4,0.2c-3.2,0.1-5.4,0.6-6.8,1.5c-1.4,0.9-2.1,2.2-2.1,4c0,1.4,0.4,2.5,1.3,3.3
		C230.7,345.9,231.9,346.3,233.4,346.3z"/>
	<path class="st1" d="M286.9,349.1v-17c0-2.1-0.4-3.6-1.3-4.7c-0.9-1-2.3-1.6-4.2-1.6c-2.5,0-4.3,0.7-5.5,2.1s-1.8,3.6-1.8,6.5v14.6
		h-4v-17c0-2.1-0.4-3.6-1.3-4.7c-0.9-1-2.3-1.6-4.2-1.6c-2.5,0-4.3,0.7-5.5,2.2c-1.2,1.5-1.7,3.9-1.7,7.3v13.7h-4v-26.2h3.2l0.6,3.6
		h0.2c0.7-1.3,1.8-2.3,3.2-3s2.9-1.1,4.6-1.1c4.1,0,6.8,1.5,8,4.4h0.2c0.8-1.4,1.9-2.5,3.4-3.2c1.5-0.8,3.2-1.2,5.1-1.2
		c3,0,5.2,0.8,6.7,2.3c1.5,1.5,2.2,4,2.2,7.3v17.1H286.9z"/>
	<path class="st1" d="M310,349.5c-3.9,0-6.9-1.2-9.2-3.5s-3.4-5.6-3.4-9.8c0-4.2,1-7.6,3.1-10.1c2.1-2.5,4.9-3.7,8.4-3.7
		c3.3,0,5.9,1.1,7.8,3.2c1.9,2.2,2.9,5,2.9,8.5v2.5h-18c0.1,3.1,0.9,5.4,2.3,7c1.5,1.6,3.5,2.4,6.2,2.4c2.8,0,5.6-0.6,8.4-1.8v3.5
		c-1.4,0.6-2.7,1-4,1.3S311.8,349.5,310,349.5z M309,325.7c-2.1,0-3.8,0.7-5,2.1s-2,3.3-2.2,5.7h13.7c0-2.5-0.6-4.4-1.7-5.7
		S311,325.7,309,325.7z"/>
</g>
<g>
	<rect x="423" y="50" class="st1" width="127" height="127"/>
	<g>
		<path class="st0" d="M459.7,118l-2.9-7.6h0c0.1,0.6,0.1,1.3,0.1,2.1v5.4h-0.9v-8.6h1.5l2.7,7.1h0l2.7-7.1h1.5v8.6h-1v-5.5
			c0-0.6,0-1.3,0.1-2.1h0l-2.9,7.6H459.7z"/>
		<path class="st0" d="M472.1,114.8c0,1-0.3,1.9-0.8,2.5s-1.3,0.9-2.2,0.9c-0.6,0-1.1-0.1-1.5-0.4s-0.8-0.7-1-1.2s-0.4-1.1-0.4-1.8
			c0-1,0.3-1.9,0.8-2.4s1.2-0.9,2.2-0.9c0.9,0,1.6,0.3,2.1,0.9S472.1,113.8,472.1,114.8z M467.2,114.8c0,0.8,0.2,1.4,0.5,1.9
			s0.8,0.6,1.4,0.6s1.1-0.2,1.5-0.6s0.5-1.1,0.5-1.9c0-0.8-0.2-1.4-0.5-1.9s-0.8-0.6-1.5-0.6c-0.6,0-1.1,0.2-1.4,0.6
			S467.2,114,467.2,114.8z"/>
		<path class="st0" d="M478.2,117.1L478.2,117.1c-0.5,0.7-1.2,1-2.1,1c-0.8,0-1.5-0.3-2-0.9s-0.7-1.4-0.7-2.4s0.2-1.9,0.7-2.5
			s1.1-0.9,2-0.9c0.9,0,1.5,0.3,2,0.9h0.1l0-0.5l0-0.5v-2.6h1v9.1h-0.8L478.2,117.1z M476.2,117.3c0.7,0,1.1-0.2,1.4-0.5
			s0.4-0.9,0.4-1.7v-0.2c0-0.9-0.2-1.6-0.5-1.9s-0.8-0.6-1.5-0.6c-0.6,0-1,0.2-1.3,0.7s-0.5,1.1-0.5,1.9c0,0.8,0.2,1.4,0.5,1.9
			S475.7,117.3,476.2,117.3z"/>
		<path class="st0" d="M482.1,111.6v4.2c0,0.5,0.1,0.9,0.4,1.2s0.6,0.4,1.1,0.4c0.7,0,1.2-0.2,1.5-0.6s0.5-1,0.5-1.8v-3.4h1v6.4
			h-0.8l-0.1-0.9h-0.1c-0.2,0.3-0.5,0.6-0.8,0.7s-0.8,0.3-1.2,0.3c-0.8,0-1.4-0.2-1.8-0.6s-0.6-1-0.6-1.8v-4.2H482.1z"/>
		<path class="st0" d="M489.5,118h-1v-9.1h1V118z"/>
		<path class="st0" d="M491,115.2v-0.9h2.9v0.9H491z"/>
		<path class="st0" d="M495.6,118v-8.6h1v8.6H495.6z"/>
		<path class="st0" d="M501.4,118.1c-0.9,0-1.6-0.3-2.2-0.9s-0.8-1.4-0.8-2.4c0-1.1,0.3-1.9,0.8-2.5s1.3-0.9,2.2-0.9
			c0.3,0,0.6,0,0.9,0.1s0.6,0.1,0.7,0.2l-0.3,0.8c-0.2-0.1-0.4-0.2-0.7-0.2s-0.5-0.1-0.7-0.1c-1.3,0-2,0.8-2,2.5
			c0,0.8,0.2,1.4,0.5,1.8s0.8,0.6,1.4,0.6c0.5,0,1.1-0.1,1.6-0.3v0.9C502.5,118,502,118.1,501.4,118.1z"/>
		<path class="st0" d="M510,114.8c0,1-0.3,1.9-0.8,2.5s-1.3,0.9-2.2,0.9c-0.6,0-1.1-0.1-1.5-0.4s-0.8-0.7-1-1.2s-0.4-1.1-0.4-1.8
			c0-1,0.3-1.9,0.8-2.4s1.2-0.9,2.2-0.9c0.9,0,1.6,0.3,2.1,0.9S510,113.8,510,114.8z M505.1,114.8c0,0.8,0.2,1.4,0.5,1.9
			s0.8,0.6,1.4,0.6s1.1-0.2,1.5-0.6s0.5-1.1,0.5-1.9c0-0.8-0.2-1.4-0.5-1.9s-0.8-0.6-1.5-0.6c-0.6,0-1.1,0.2-1.4,0.6
			S505.1,114,505.1,114.8z"/>
		<path class="st0" d="M516.1,118v-4.2c0-0.5-0.1-0.9-0.4-1.2s-0.6-0.4-1.1-0.4c-0.7,0-1.2,0.2-1.5,0.5s-0.5,1-0.5,1.8v3.4h-1v-6.4
			h0.8l0.2,0.9h0c0.2-0.3,0.5-0.6,0.8-0.7s0.8-0.3,1.2-0.3c0.8,0,1.4,0.2,1.7,0.6s0.6,1,0.6,1.8v4.2H516.1z"/>
	</g>
</g>
</svg>
