<?xml version="1.0" encoding="utf-8"?>
<!-- Generator: Adobe Illustrator 22.0.1, SVG Export Plug-In . SVG Version: 6.00 Build 0)  -->
<svg version="1.1" id="Ebene_1" xmlns="http://www.w3.org/2000/svg" xmlns:xlink="http://www.w3.org/1999/xlink" x="0px" y="0px"
	 viewBox="0 0 600 250" style="enable-background:new 0 0 600 250;" xml:space="preserve">
<g>
	<path d="M72.7,85.9c0,3.1-1.1,5.6-3.4,7.4c-2.3,1.8-5.4,2.7-9.5,2.7c-3.7,0-7-0.7-9.9-2.1v-6.9c2.4,1,4.3,1.8,6,2.2
		c1.6,0.4,3.1,0.6,4.5,0.6c1.6,0,2.9-0.3,3.7-0.9s1.3-1.5,1.3-2.8c0-0.7-0.2-1.3-0.6-1.8c-0.4-0.5-0.9-1-1.7-1.5
		c-0.7-0.5-2.2-1.3-4.5-2.4c-2.1-1-3.7-2-4.8-2.9c-1.1-0.9-1.9-2-2.6-3.2c-0.6-1.2-1-2.7-1-4.3c0-3.1,1-5.5,3.1-7.3
		c2.1-1.8,5-2.6,8.7-2.6c1.8,0,3.5,0.2,5.2,0.6c1.6,0.4,3.4,1,5.2,1.8l-2.4,5.7c-1.9-0.8-3.4-1.3-4.6-1.6s-2.4-0.5-3.6-0.5
		c-1.4,0-2.5,0.3-3.2,1c-0.7,0.7-1.1,1.5-1.1,2.6c0,0.7,0.2,1.2,0.5,1.7s0.8,1,1.4,1.4c0.7,0.5,2.2,1.3,4.7,2.4
		c3.3,1.6,5.5,3.1,6.7,4.7C72.1,81.7,72.7,83.6,72.7,85.9z"/>
	<path d="M89.3,96c-8.3,0-12.4-4.6-12.4-13.7c0-4.5,1.1-8,3.4-10.4s5.5-3.6,9.7-3.6c3.1,0,5.9,0.6,8.3,1.8l-2.1,5.6
		c-1.1-0.5-2.2-0.8-3.2-1.1s-2-0.4-3-0.4c-3.8,0-5.7,2.7-5.7,8.1c0,5.2,1.9,7.8,5.7,7.8c1.4,0,2.7-0.2,3.9-0.6
		c1.2-0.4,2.4-1,3.6-1.8v6.2c-1.2,0.7-2.4,1.3-3.6,1.6C92.6,95.9,91.1,96,89.3,96z"/>
	<path d="M128.2,95.6h-7.3V80c0-3.8-1.4-5.8-4.3-5.8c-2,0-3.5,0.7-4.4,2.1c-0.9,1.4-1.4,3.6-1.4,6.7v12.5h-7.3V58.5h7.3V66
		c0,0.6-0.1,2-0.2,4.1l-0.2,2.1h0.4c1.6-2.6,4.2-3.9,7.7-3.9c3.1,0,5.5,0.8,7.1,2.5c1.6,1.7,2.4,4.1,2.4,7.2V95.6z"/>
	<path d="M154.6,95.6l-1-3.4h-0.4c-0.8,1.2-1.9,2.2-3.3,2.9c-1.4,0.7-3.1,1-4.9,1c-3.1,0-5.5-0.8-7.1-2.5c-1.6-1.7-2.4-4.1-2.4-7.2
		V68.9h7.3v15.6c0,1.9,0.3,3.4,1,4.3c0.7,1,1.8,1.4,3.3,1.4c2,0,3.5-0.7,4.4-2c0.9-1.4,1.4-3.6,1.4-6.8V68.9h7.3v26.7H154.6z"/>
	<path d="M175.1,95.6h-7.3V58.5h7.3V95.6z"/>
	<path d="M207.3,95.6H200V80c0-1.9-0.3-3.4-1-4.3c-0.7-1-1.8-1.4-3.3-1.4c-2,0-3.5,0.7-4.4,2c-0.9,1.4-1.4,3.6-1.4,6.8v12.5h-7.3
		V68.9h5.6l1,3.4h0.4c0.8-1.3,1.9-2.3,3.4-2.9c1.4-0.7,3-1,4.9-1c3.1,0,5.5,0.8,7.1,2.5c1.6,1.7,2.4,4.1,2.4,7.3V95.6z"/>
	<path d="M231.7,95.6l-1.4-3.6h-0.2c-1.2,1.5-2.5,2.6-3.8,3.2c-1.3,0.6-3,0.9-5.1,0.9c-2.6,0-4.6-0.7-6-2.2s-2.2-3.5-2.2-6.2
		c0-2.8,1-4.9,3-6.3s5-2.1,9-2.2l4.6-0.1v-1.2c0-2.7-1.4-4.1-4.1-4.1c-2.1,0-4.6,0.6-7.5,1.9l-2.4-4.9c3.1-1.6,6.5-2.4,10.2-2.4
		c3.6,0,6.3,0.8,8.2,2.3c1.9,1.6,2.9,3.9,2.9,7.1v17.8H231.7z M229.6,83.2l-2.8,0.1c-2.1,0.1-3.7,0.4-4.7,1.1
		c-1,0.7-1.6,1.8-1.6,3.2c0,2.1,1.2,3.1,3.5,3.1c1.7,0,3-0.5,4-1.5s1.5-2.3,1.5-3.9V83.2z"/>
	<path d="M268.1,95.6h-7.3V80c0-1.9-0.3-3.4-1-4.3c-0.6-1-1.7-1.4-3-1.4c-1.9,0-3.2,0.7-4.1,2.1c-0.8,1.4-1.3,3.6-1.3,6.7v12.5h-7.3
		V68.9h5.6l1,3.4h0.4c0.7-1.2,1.7-2.2,3.1-2.9c1.4-0.7,2.9-1,4.7-1c4,0,6.7,1.3,8.1,3.9h0.6c0.7-1.2,1.8-2.2,3.2-2.9s3-1,4.7-1
		c3,0,5.3,0.8,6.9,2.3c1.6,1.6,2.3,4,2.3,7.5v17.4h-7.3V80c0-1.9-0.3-3.4-1-4.3c-0.6-1-1.7-1.4-3-1.4c-1.8,0-3.1,0.6-4,1.9
		s-1.3,3.3-1.3,6.1V95.6z"/>
	<path d="M304.3,96c-4.3,0-7.6-1.2-10.1-3.6c-2.4-2.4-3.6-5.7-3.6-10.1c0-4.5,1.1-7.9,3.4-10.4c2.2-2.4,5.3-3.7,9.3-3.7
		c3.8,0,6.7,1.1,8.8,3.2c2.1,2.1,3.1,5.1,3.1,8.9v3.5H298c0.1,2.1,0.7,3.7,1.8,4.8c1.1,1.2,2.8,1.7,4.8,1.7c1.6,0,3.1-0.2,4.6-0.5
		c1.4-0.3,2.9-0.9,4.5-1.6v5.6c-1.3,0.6-2.6,1.1-4.1,1.4S306.4,96,304.3,96z M303.3,73.6c-1.5,0-2.8,0.5-3.6,1.5
		c-0.9,1-1.4,2.4-1.5,4.2h10.2c0-1.8-0.5-3.2-1.4-4.2S304.8,73.6,303.3,73.6z"/>
</g>
<g>
	<path d="M91.5,160.9c0,5.7-2.1,10.3-6.2,13.6c-4.1,3.3-9.9,5-17.3,5c-6.8,0-12.8-1.3-18-3.8v-12.5c4.3,1.9,7.9,3.3,10.9,4
		c3,0.8,5.7,1.2,8.2,1.2c3,0,5.2-0.6,6.8-1.7c1.6-1.1,2.4-2.8,2.4-5c0-1.2-0.3-2.4-1-3.3c-0.7-1-1.7-1.9-3.1-2.8
		c-1.3-0.9-4.1-2.3-8.2-4.3c-3.9-1.8-6.8-3.6-8.7-5.3s-3.5-3.6-4.7-5.9c-1.2-2.2-1.7-4.8-1.7-7.8c0-5.6,1.9-10.1,5.7-13.3
		s9.1-4.8,15.8-4.8c3.3,0,6.5,0.4,9.5,1.2c3,0.8,6.1,1.9,9.4,3.3L86.8,129c-3.4-1.4-6.2-2.4-8.4-2.9s-4.4-0.8-6.5-0.8
		c-2.6,0-4.5,0.6-5.9,1.8c-1.4,1.2-2,2.7-2,4.7c0,1.2,0.3,2.2,0.8,3.1s1.4,1.7,2.6,2.6s4.1,2.3,8.6,4.5c5.9,2.8,10,5.7,12.2,8.6
		C90.4,153.3,91.5,156.8,91.5,160.9z"/>
	<path d="M121.7,179.5c-15.1,0-22.7-8.3-22.7-24.9c0-8.3,2.1-14.6,6.2-19c4.1-4.4,10-6.5,17.7-6.5c5.6,0,10.7,1.1,15.1,3.3
		l-3.9,10.3c-2.1-0.8-4-1.5-5.8-2.1c-1.8-0.5-3.6-0.8-5.4-0.8c-6.9,0-10.4,4.9-10.4,14.7c0,9.5,3.5,14.3,10.4,14.3
		c2.6,0,4.9-0.3,7.1-1c2.2-0.7,4.4-1.7,6.5-3.2v11.4c-2.1,1.4-4.3,2.3-6.5,2.8C127.8,179.2,125.1,179.5,121.7,179.5z"/>
	<path d="M192.7,178.6h-13.3v-28.4c0-7-2.6-10.5-7.8-10.5c-3.7,0-6.4,1.3-8.1,3.8c-1.7,2.5-2.5,6.6-2.5,12.3v22.9h-13.3v-67.7h13.3
		v13.8c0,1.1-0.1,3.6-0.3,7.6l-0.3,3.9h0.7c3-4.8,7.7-7.1,14.1-7.1c5.7,0,10.1,1.5,13,4.6c3,3.1,4.4,7.5,4.4,13.2V178.6z"/>
	<path d="M240.8,178.6l-1.8-6.2h-0.7c-1.4,2.3-3.4,4-6,5.2c-2.6,1.2-5.6,1.8-8.9,1.8c-5.7,0-10-1.5-12.9-4.6s-4.4-7.5-4.4-13.2
		v-31.7h13.3v28.4c0,3.5,0.6,6.1,1.9,7.9c1.2,1.8,3.2,2.6,6,2.6c3.7,0,6.4-1.2,8.1-3.7c1.7-2.5,2.5-6.6,2.5-12.3v-22.9H251v48.7
		H240.8z"/>
	<path d="M278.2,178.6h-13.3v-67.7h13.3V178.6z"/>
	<path d="M318.9,179.5c-5.7,0-10.2-2.1-13.4-6.2h-0.7c0.5,4.1,0.7,6.4,0.7,7.1V200h-13.3v-70.1h10.8l1.9,6.3h0.6
		c3.1-4.8,7.7-7.2,13.8-7.2c5.7,0,10.2,2.2,13.5,6.7c3.2,4.4,4.9,10.6,4.9,18.5c0,5.2-0.8,9.7-2.3,13.5c-1.5,3.8-3.7,6.7-6.5,8.7
		C326,178.5,322.7,179.5,318.9,179.5z M315,139.6c-3.3,0-5.7,1-7.2,3c-1.5,2-2.3,5.3-2.4,10v1.4c0,5.2,0.8,9,2.3,11.2
		c1.6,2.3,4,3.4,7.4,3.4c5.9,0,8.9-4.9,8.9-14.7c0-4.8-0.7-8.4-2.2-10.8C320.4,140.8,318.1,139.6,315,139.6z"/>
	<path d="M392.8,154.2c0,7.9-2.1,14.1-6.3,18.6c-4.2,4.5-10,6.7-17.5,6.7c-4.7,0-8.8-1-12.4-3.1c-3.6-2-6.3-5-8.2-8.8
		c-1.9-3.8-2.9-8.3-2.9-13.4c0-7.9,2.1-14.1,6.2-18.5s10-6.6,17.5-6.6c4.7,0,8.8,1,12.4,3s6.3,4.9,8.2,8.7
		C391.8,144.6,392.8,149.1,392.8,154.2z M359.1,154.2c0,4.8,0.8,8.5,2.4,10.9s4.2,3.7,7.7,3.7c3.5,0,6.1-1.2,7.6-3.7
		c1.6-2.5,2.3-6.1,2.3-10.9c0-4.8-0.8-8.4-2.4-10.8c-1.6-2.4-4.1-3.6-7.7-3.6c-3.5,0-6.1,1.2-7.7,3.6
		C359.9,145.7,359.1,149.3,359.1,154.2z"/>
	<path d="M430.9,129c1.8,0,3.3,0.1,4.5,0.4l-1,12.4c-1.1-0.3-2.4-0.4-3.9-0.4c-4.2,0-7.5,1.1-9.9,3.3c-2.4,2.2-3.5,5.2-3.5,9.1v24.8
		h-13.3v-48.7h10.1l2,8.2h0.7c1.5-2.7,3.5-4.9,6.1-6.6C425.1,129.9,427.9,129,430.9,129z"/>
	<path d="M464.7,168.9c2.3,0,5.1-0.5,8.4-1.5v9.9c-3.3,1.5-7.4,2.2-12.2,2.2c-5.3,0-9.2-1.3-11.6-4c-2.4-2.7-3.6-6.7-3.6-12.1v-23.5
		h-6.4v-5.6l7.3-4.4l3.8-10.3h8.5v10.4h13.6v10h-13.6v23.5c0,1.9,0.5,3.3,1.6,4.2C461.6,168.4,463,168.9,464.7,168.9z"/>
	<path d="M513.8,178.6l-2.6-6.6h-0.3c-2.2,2.8-4.5,4.8-6.9,5.9c-2.4,1.1-5.4,1.6-9.2,1.6c-4.7,0-8.3-1.3-11-4c-2.7-2.7-4-6.5-4-11.4
		c0-5.2,1.8-9,5.4-11.4c3.6-2.5,9.1-3.8,16.3-4.1l8.4-0.3v-2.1c0-4.9-2.5-7.4-7.6-7.4c-3.9,0-8.5,1.2-13.7,3.5l-4.4-9
		c5.6-2.9,11.8-4.4,18.6-4.4c6.5,0,11.5,1.4,15,4.3c3.5,2.8,5.2,7.2,5.2,13v32.4H513.8z M509.9,156l-5.1,0.2
		c-3.9,0.1-6.7,0.8-8.6,2.1c-1.9,1.3-2.8,3.2-2.8,5.8c0,3.7,2.1,5.6,6.4,5.6c3.1,0,5.5-0.9,7.4-2.7c1.8-1.8,2.8-4.1,2.8-7.1V156z"/>
	<path d="M550,178.6h-13.3v-67.7H550V178.6z"/>
</g>
</svg>
