<?xml version="1.0" encoding="utf-8"?>
<!-- Generator: Adobe Illustrator 22.0.1, SVG Export Plug-In . SVG Version: 6.00 Build 0)  -->
<svg version="1.1" id="Ebene_1" xmlns="http://www.w3.org/2000/svg" xmlns:xlink="http://www.w3.org/1999/xlink" x="0px" y="0px"
	 viewBox="0 0 100 100" style="enable-background:new 0 0 100 100;" xml:space="preserve">
<style type="text/css">
	.st0{fill:#D8D8D8;}
</style>
<rect class="st0" width="100" height="100"/>
<g>
	<path d="M89.7,88l-3.2-0.7c0.4-2.2,1.6-9.5-2.7-11.7c-0.9-0.4-2.2-1.1-3.8-2c-6-3.1-14.9-7.8-18.1-9.9c-1.9-1.2-4.1-3-4.6-5.6
		c-0.3-1.8,0.2-3.5,1.8-5.5c2.7-3.6,5.1-8.4,5.7-11.5c0.7-3.5,0.7-15.7-0.4-17.8l-0.2-0.6c-1.2-2.7-3.6-7.7-13.9-7.6
		c-10.6,0.2-12.8,5-14,7.7l-0.2,0.4c-1,2.1-1,14.4-0.4,17.8c0.6,3.1,2.9,7.9,5.7,11.5c1.4,1.9,2,3.7,1.8,5.5
		c-0.4,2.6-2.7,4.3-4.6,5.6c-3.1,2.1-12.1,6.8-18.1,9.9c-1.6,0.8-2.9,1.4-3.8,2c-4.2,2.2-3.1,9.6-2.7,11.7L10.6,88
		c-1.4-7.5,0.1-13,4.5-15.4c0.9-0.4,2.2-1.2,3.8-2c5.6-2.9,14.8-7.7,17.8-9.7c1.9-1.3,2.9-2.5,3.1-3.3c0.1-0.8-0.2-1.7-1.1-2.8
		c-3.1-4-5.6-9.3-6.2-12.8c-0.7-3.5-0.9-16.7,0.7-19.8l0.2-0.4c1-3,3.9-9.4,16.6-9.6c12.6-0.2,15.7,6.6,17.1,9.5l0.2,0.6
		c1.6,3.2,1.3,16.4,0.7,19.8c-0.7,3.7-3.2,8.8-6.2,12.8c-0.9,1.1-1.2,2-1.1,2.8c0.1,1,1.2,2.1,3.1,3.3c2.9,2,12.3,6.8,17.7,9.7
		c1.6,0.8,2.9,1.4,3.8,2C89.5,75,91.2,80.5,89.7,88z"/>
</g>
</svg>
